<svg version="1.1" xmlns="http://www.w3.org/2000/svg" xmlns:xlink="http://www.w3.org/1999/xlink" width="20.20923" height="21.37302" viewBox="0,0,20.20923,21.37302"><g transform="translate(-212.90821,-174.63653)"><g data-paper-data="{&quot;isPaintingLayer&quot;:true}" fill="#000000" fill-rule="nonzero" stroke="none" stroke-width="0.5" stroke-linecap="butt" stroke-linejoin="miter" stroke-miterlimit="10" stroke-dasharray="" stroke-dashoffset="0" style="mix-blend-mode: normal"><path d="M227.87162,175.27737c2.16093,-1.47703 4.19845,-0.29092 4.19845,2.43068c0,0.42949 -0.4109,0.75707 -0.66291,1.10485c-1.37774,1.90133 -3.76182,4.2938 -5.66446,6.18914c-0.98247,1.43975 -2.0235,3.02675 -3.17609,4.1963c1.67181,-0.25062 3.27985,-0.51334 4.56584,-1.02821c1.71138,-0.68518 4.39758,-2.55888 5.74301,0.13197c2.19162,4.38323 -11.16777,6.09604 -13.32612,6.82313c-0.70923,0.23892 -3.70341,1.25824 -4.55391,0.73867c-0.81756,-0.20111 -1.3336,-1.09242 -1.64802,-2.32286l-0.08302,-0.1209c0.01165,-0.02497 0.02347,-0.04978 0.03544,-0.07442c-0.86234,-3.71443 -0.03089,-10.19526 -0.03544,-10.55089c-0.00536,-0.41833 -0.07337,-0.83369 -0.09421,-1.25153c-0.04504,-0.903 -0.61324,-4.30818 0.18967,-4.76699l2.15454,-1.23117c1.19956,0.68546 1.95017,1.81343 2.40727,3.17692c0.61505,1.83461 0.6987,4.09561 0.62957,6.27876c0.98412,-1.14867 2.23956,-2.58881 3.38317,-3.79824c1.70472,-2.31066 4.12222,-4.68464 5.93722,-5.92521z"/></g></g></svg>