<svg version="1.1" xmlns="http://www.w3.org/2000/svg" xmlns:xlink="http://www.w3.org/1999/xlink" width="39.1643" height="29.45691" viewBox="0,0,39.1643,29.45691"><g transform="translate(-218.65076,-167.5)"><g data-paper-data="{&quot;isPaintingLayer&quot;:true}" fill-rule="nonzero" stroke-linecap="butt" stroke-linejoin="miter" stroke-miterlimit="10" stroke-dasharray="" stroke-dashoffset="0" style="mix-blend-mode: normal"><path d="M218.65076,177.54213v-10.04213h39.1643v10.04213z" fill="#ff8538" stroke="none" stroke-width="0"/><path d="M218.65076,187.24952v-10.04213h39.1643v10.04213z" fill="#ffffff" stroke="none" stroke-width="0"/><path d="M218.65076,196.95691v-10.04213h39.1643v10.04213z" fill="#40a725" stroke="none" stroke-width="0"/><path d="M236.7266,185.91057c0,-0.36974 0.29973,-0.66948 0.66948,-0.66948c0.36974,0 0.66948,0.29973 0.66948,0.66948c0,0.36974 -0.29973,0.66948 -0.66948,0.66948c-0.36974,0 -0.66948,-0.29973 -0.66948,-0.66948z" fill="#ffffff" stroke="none" stroke-width="0.5"/><path d="M241.92857,182.14286c0,1.73575 -1.40711,3.14286 -3.14286,3.14286c-1.73575,0 -3.14286,-1.40711 -3.14286,-3.14286c0,-1.73575 1.40711,-3.14286 3.14286,-3.14286c1.73575,0 3.14286,1.40711 3.14286,3.14286z" fill="#003aff" stroke="#0021ff" stroke-width="1"/></g></g></svg>